<?xml version="1.0" encoding="iso-8859-1"?>
<!-- Uploaded to: SVG Repo, www.svgrepo.com, Generator: SVG Repo Mixer Tools -->
<!DOCTYPE svg PUBLIC "-//W3C//DTD SVG 1.1//EN" "http://www.w3.org/Graphics/SVG/1.1/DTD/svg11.dtd">
<svg xmlns="http://www.w3.org/2000/svg" xmlns:xlink="http://www.w3.org/1999/xlink" viewBox="0 0 230 70" width="230" height="70" style="width: 100%; height: 100%;" preserveAspectRatio="xMidYMid meet">
    <defs><clipPath id="__lottie_element_2"><rect width="230" height="70" x="0" y="0"></rect></clipPath><clipPath id="__lottie_element_4"><path d="M0,0 L1920,0 L1920,1080 L0,1080z"></path></clipPath><clipPath id="__lottie_element_8"><path fill="#ffffff" clip-rule="nonzero" d=" M-4.150000095367432,-2.740000009536743 C-4.150000095367432,-2.740000009536743 -4.239999771118164,36.130001068115234 -4.239999771118164,36.130001068115234 C-4.239999771118164,36.130001068115234 195.6699981689453,35.63999938964844 195.6699981689453,35.63999938964844 C195.6699981689453,35.63999938964844 195.75999450683594,-3.2300000190734863 195.75999450683594,-3.2300000190734863 C195.75999450683594,-3.2300000190734863 -4.150000095367432,-2.740000009536743 -4.150000095367432,-2.740000009536743" fill-opacity="1"></path></clipPath></defs><g clip-path="url(#__lottie_element_2)"><g clip-path="url(#__lottie_element_4)" style="display: block;" transform="matrix(1,0,0,1,-840.593017578125,-481.7900085449219)" opacity="1"><g clip-path="url(#__lottie_element_8)" style="display: block;" transform="matrix(1,0,0,1,876.9199829101562,500.04998779296875)" opacity="1"><g opacity="1" transform="matrix(1,0,0,1,13.229999542236328,16.565000534057617)"><path fill="rgb(0,0,0)" fill-opacity="1" d=" M12.979999542236328,8.154999732971191 C12.979999542236328,8.154999732971191 12.979999542236328,11.414999961853027 12.979999542236328,11.414999961853027 C12.979999542236328,11.414999961853027 1.840000033378601,11.414999961853027 1.840000033378601,11.414999961853027 C1.840000033378601,11.414999961853027 1.840000033378601,8.095000267028809 1.840000033378601,8.095000267028809 C1.840000033378601,8.095000267028809 4.170000076293945,8.095000267028809 4.170000076293945,8.095000267028809 C4.170000076293945,8.095000267028809 4.429999828338623,7.835000038146973 4.429999828338623,7.835000038146973 C4.429999828338623,7.835000038146973 4.429999828338623,-1.3849999904632568 4.429999828338623,-1.3849999904632568 C4.429999828338623,-5.534999847412109 3.240000009536743,-6.664999961853027 0.28999999165534973,-6.664999961853027 C-0.8500000238418579,-6.664999961853027 -2.0899999141693115,-6.454999923706055 -3.700000047683716,-6.045000076293945 C-3.700000047683716,-6.045000076293945 -3.700000047683716,7.84499979019165 -3.700000047683716,7.84499979019165 C-3.700000047683716,7.84499979019165 -3.440000057220459,8.104999542236328 -3.440000057220459,8.104999542236328 C-3.440000057220459,8.104999542236328 -1.1100000143051147,8.104999542236328 -1.1100000143051147,8.104999542236328 C-1.1100000143051147,8.104999542236328 -1.1100000143051147,11.425000190734863 -1.1100000143051147,11.425000190734863 C-1.1100000143051147,11.425000190734863 -12.25,11.425000190734863 -12.25,11.425000190734863 C-12.25,11.425000190734863 -12.25,8.104999542236328 -12.25,8.104999542236328 C-12.25,8.104999542236328 -9.920000076293945,8.104999542236328 -9.920000076293945,8.104999542236328 C-9.920000076293945,8.104999542236328 -9.65999984741211,7.84499979019165 -9.65999984741211,7.84499979019165 C-9.65999984741211,7.84499979019165 -9.65999984741211,-4.744999885559082 -9.65999984741211,-4.744999885559082 C-9.65999984741211,-4.744999885559082 -12.979999542236328,-6.764999866485596 -12.979999542236328,-6.764999866485596 C-12.979999542236328,-6.764999866485596 -12.979999542236328,-7.434999942779541 -12.979999542236328,-7.434999942779541 C-12.979999542236328,-7.434999942779541 -5.210000038146973,-11.425000190734863 -5.210000038146973,-11.425000190734863 C-5.210000038146973,-11.425000190734863 -4.539999961853027,-11.0649995803833 -4.539999961853027,-11.0649995803833 C-4.539999961853027,-11.0649995803833 -3.9200000762939453,-8.005000114440918 -3.9200000762939453,-8.005000114440918 C-0.8600000143051147,-10.024999618530273 1.309999942779541,-11.114999771118164 4.110000133514404,-11.114999771118164 C7.789999961853027,-11.114999771118164 10.380000114440918,-9.305000305175781 10.380000114440918,-5.054999828338623 C10.380000114440918,-5.054999828338623 10.380000114440918,7.84499979019165 10.380000114440918,7.84499979019165 C10.380000114440918,7.84499979019165 10.640000343322754,8.154999732971191 10.640000343322754,8.154999732971191 C10.640000343322754,8.154999732971191 12.970000267028809,8.154999732971191 12.970000267028809,8.154999732971191 C12.970000267028809,8.154999732971191 12.979999542236328,8.154999732971191 12.979999542236328,8.154999732971191z"></path></g><g opacity="1" transform="matrix(1,0,0,1,41.08000183105469,16.959999084472656)"><path fill="rgb(0,0,0)" fill-opacity="1" d=" M8.539999961853027,6.699999809265137 C6.730000019073486,7.590000152587891 5.179999828338623,8 3.619999885559082,8 C-0.6200000047683716,8 -3.009999990463257,4.940000057220459 -3.369999885559082,-0.029999999329447746 C-3.369999885559082,-0.029999999329447746 9.479999542236328,-0.029999999329447746 9.479999542236328,-0.029999999329447746 C9.6899995803833,-1.1699999570846558 9.739999771118164,-1.899999976158142 9.739999771118164,-2.8299999237060547 C9.739999771118164,-7.960000038146973 6.46999979019165,-11.529999732971191 1.190000057220459,-11.529999732971191 C-5.179999828338623,-11.529999732971191 -9.739999771118164,-6.400000095367432 -9.739999771118164,0.38999998569488525 C-9.739999771118164,7.179999828338623 -4.980000019073486,11.529999732971191 1.190000057220459,11.529999732971191 C4.449999809265137,11.529999732971191 7.199999809265137,10.34000015258789 9.529999732971191,8.529999732971191 C9.529999732971191,8.529999732971191 8.550000190734863,6.71999979019165 8.550000190734863,6.71999979019165 C8.550000190734863,6.71999979019165 8.539999961853027,6.699999809265137 8.539999961853027,6.699999809265137z M0.4699999988079071,-8.510000228881836 C2.5899999141693115,-8.510000228881836 3.890000104904175,-7.059999942779541 3.990000009536743,-2.7100000381469727 C3.990000009536743,-2.7100000381469727 -3.359999895095825,-2.7100000381469727 -3.359999895095825,-2.7100000381469727 C-3.1600000858306885,-6.489999771118164 -1.809999942779541,-8.510000228881836 0.4699999988079071,-8.510000228881836z"></path></g><g opacity="1" transform="matrix(1,0,0,1,73.67500305175781,17.530000686645508)"><path fill="rgb(0,0,0)" fill-opacity="1" d=" M17.225000381469727,-10.479999542236328 C17.225000381469727,-10.479999542236328 17.225000381469727,-10.319999694824219 17.225000381469727,-10.319999694824219 C17.225000381469727,-10.319999694824219 14.274999618530273,-7.880000114440918 14.274999618530273,-7.880000114440918 C14.274999618530273,-7.880000114440918 6.974999904632568,10.979999542236328 6.974999904632568,10.979999542236328 C6.974999904632568,10.979999542236328 5.264999866485596,10.979999542236328 5.264999866485596,10.979999542236328 C5.264999866485596,10.979999542236328 0.5550000071525574,-1.2000000476837158 0.5550000071525574,-1.2000000476837158 C-0.8450000286102295,2.2200000286102295 -4.474999904632568,10.979999542236328 -4.474999904632568,10.979999542236328 C-4.474999904632568,10.979999542236328 -6.135000228881836,10.979999542236328 -6.135000228881836,10.979999542236328 C-6.135000228881836,10.979999542236328 -14.21500015258789,-7.880000114440918 -14.21500015258789,-7.880000114440918 C-14.21500015258789,-7.880000114440918 -17.225000381469727,-10.210000038146973 -17.225000381469727,-10.210000038146973 C-17.225000381469727,-10.210000038146973 -17.225000381469727,-10.470000267028809 -17.225000381469727,-10.470000267028809 C-17.225000381469727,-10.470000267028809 -6.445000171661377,-10.470000267028809 -6.445000171661377,-10.470000267028809 C-6.445000171661377,-10.470000267028809 -6.445000171661377,-10.3100004196167 -6.445000171661377,-10.3100004196167 C-6.445000171661377,-10.3100004196167 -9.96500015258789,-7.869999885559082 -9.96500015258789,-7.869999885559082 C-9.96500015258789,-7.869999885559082 -4.425000190734863,5.960000038146973 -4.425000190734863,5.960000038146973 C-4.425000190734863,5.960000038146973 -4.215000152587891,5.960000038146973 -4.215000152587891,5.960000038146973 C-4.215000152587891,5.960000038146973 -0.32499998807907104,-3.4700000286102295 -0.32499998807907104,-3.4700000286102295 C-0.32499998807907104,-3.4700000286102295 -2.505000114440918,-9.119999885559082 -2.505000114440918,-9.119999885559082 C-2.505000114440918,-9.119999885559082 1.065000057220459,-10.979999542236328 1.065000057220459,-10.979999542236328 C1.065000057220459,-10.979999542236328 6.864999771118164,5.960000038146973 6.864999771118164,5.960000038146973 C6.864999771118164,5.960000038146973 7.074999809265137,5.960000038146973 7.074999809265137,5.960000038146973 C7.074999809265137,5.960000038146973 11.944999694824219,-7.929999828338623 11.944999694824219,-7.929999828338623 C11.944999694824219,-7.929999828338623 8.21500015258789,-10.3100004196167 8.21500015258789,-10.3100004196167 C8.21500015258789,-10.3100004196167 8.21500015258789,-10.470000267028809 8.21500015258789,-10.470000267028809 C8.21500015258789,-10.470000267028809 17.225000381469727,-10.470000267028809 17.225000381469727,-10.470000267028809 C17.225000381469727,-10.470000267028809 17.225000381469727,-10.479999542236328 17.225000381469727,-10.479999542236328z"></path></g><g opacity="1" transform="matrix(1,0,0,1,104.29000091552734,17.364999771118164)"><path fill="rgb(0,0,0)" fill-opacity="1" d=" M6.400000095367432,8.295000076293945 C6.400000095367432,8.295000076293945 6.139999866485596,8.03499984741211 6.139999866485596,8.03499984741211 C6.139999866485596,8.03499984741211 6.139999866485596,-4.34499979019165 6.139999866485596,-4.34499979019165 C6.139999866485596,-8.694999694824219 3.4000000953674316,-11.135000228881836 -0.800000011920929,-11.135000228881836 C-4.110000133514404,-11.135000228881836 -6.5,-9.895000457763672 -8.880000114440918,-7.614999771118164 C-8.880000114440918,-7.614999771118164 -8.210000038146973,-6.375 -8.210000038146973,-6.375 C-6.400000095367432,-7.565000057220459 -4.579999923706055,-8.345000267028809 -2.200000047683716,-8.345000267028809 C1.5800000429153442,-8.345000267028809 2.509999990463257,-6.375 2.509999990463257,-2.2850000858306885 C2.509999990463257,-2.2850000858306885 2.509999990463257,-0.675000011920929 2.509999990463257,-0.675000011920929 C-4.480000019073486,-0.36500000953674316 -9.510000228881836,1.3949999809265137 -9.510000228881836,6.164999961853027 C-9.510000228881836,9.114999771118164 -7.389999866485596,11.135000228881836 -4.329999923706055,11.135000228881836 C-2.049999952316284,11.135000228881836 0.07999999821186066,10.154999732971191 2.509999990463257,8.494999885559082 C2.509999990463257,8.494999885559082 2.509999990463257,10.614999771118164 2.509999990463257,10.614999771118164 C2.509999990463257,10.614999771118164 9.510000228881836,10.614999771118164 9.510000228881836,10.614999771118164 C9.510000228881836,10.614999771118164 9.510000228881836,8.295000076293945 9.510000228881836,8.295000076293945 C9.510000228881836,8.295000076293945 6.400000095367432,8.295000076293945 6.400000095367432,8.295000076293945z M2.509999990463257,7.554999828338623 C1.059999942779541,8.074999809265137 -0.8500000238418579,8.4350004196167 -2.4600000381469727,8.4350004196167 C-4.429999828338623,8.4350004196167 -5.829999923706055,7.505000114440918 -5.829999923706055,5.485000133514404 C-5.829999923706055,2.015000104904175 -1.8899999856948853,1.284999966621399 2.509999990463257,0.9750000238418579 C2.509999990463257,0.9750000238418579 2.509999990463257,7.554999828338623 2.509999990463257,7.554999828338623z"></path></g><g opacity="1" transform="matrix(1,0,0,1,0,0)"><path fill="rgb(0,0,0)" fill-opacity="1" d=" M113.80000305175781,25.649999618530273 C113.80000305175781,25.649999618530273 113.80000305175781,25.65999984741211 113.80000305175781,25.65999984741211 C113.80000305175781,25.65999984741211 113.80000305175781,25.649999618530273 113.80000305175781,25.649999618530273z"></path></g><g opacity="1" transform="matrix(1,0,0,1,126.09500122070312,14.369999885559082)"><path fill="rgb(0,0,0)" fill-opacity="1" d=" M-4.014999866485596,7.539999961853027 C-4.014999866485596,7.539999961853027 -4.014999866485596,-4.739999771118164 -4.014999866485596,-4.739999771118164 C-4.014999866485596,-4.739999771118164 -4.275000095367432,-5 -4.275000095367432,-5 C-4.275000095367432,-5 -7.385000228881836,-5 -7.385000228881836,-5 C-7.385000228881836,-5 -7.385000228881836,-5.260000228881836 -7.385000228881836,-5.260000228881836 C-7.385000228881836,-5.260000228881836 -0.6449999809265137,-14.119999885559082 -0.6449999809265137,-14.119999885559082 C-0.6449999809265137,-14.119999885559082 -0.38499999046325684,-14.119999885559082 -0.38499999046325684,-14.119999885559082 C-0.38499999046325684,-14.119999885559082 -0.38499999046325684,-7.329999923706055 -0.38499999046325684,-7.329999923706055 C-0.38499999046325684,-7.329999923706055 6.605000019073486,-7.329999923706055 6.605000019073486,-7.329999923706055 C6.605000019073486,-7.329999923706055 6.605000019073486,-5 6.605000019073486,-5 C6.605000019073486,-5 -0.38499999046325684,-5 -0.38499999046325684,-5 C-0.38499999046325684,-5 -0.38499999046325684,4.690000057220459 -0.38499999046325684,4.690000057220459 C-0.38499999046325684,9.920000076293945 0.39500001072883606,11.680000305175781 3.3949999809265137,11.680000305175781 C4.695000171661377,11.680000305175781 5.775000095367432,11.470000267028809 6.815000057220459,11.109999656677246 C6.815000057220459,11.109999656677246 7.385000228881836,12.199999809265137 7.385000228881836,12.199999809265137 C5.934999942779541,13.180000305175781 3.7049999237060547,14.119999885559082 1.4249999523162842,14.119999885559082 C-2.255000114440918,14.119999885559082 -4.014999866485596,12.460000038146973 -4.014999866485596,7.539999961853027z"></path></g><g opacity="1" transform="matrix(1,0,0,1,147.8699951171875,17.315000534057617)"><path fill="rgb(0,0,0)" fill-opacity="1" d=" M1.0099999904632568,-11.164999961853027 C-3.7100000381469727,-11.164999961853027 -9.199999809265137,-7.125 -9.199999809265137,0.4950000047683716 C-9.199999809265137,6.394999980926514 -5.420000076293945,11.164999961853027 0.8999999761581421,11.164999961853027 C3.9100000858306885,11.164999961853027 6.960000038146973,10.024999618530273 8.930000305175781,8.164999961853027 C8.930000305175781,8.164999961853027 8.359999656677246,7.074999809265137 8.359999656677246,7.074999809265137 C6.909999847412109,7.855000019073486 4.989999771118164,8.375 3.0199999809265137,8.375 C-1.649999976158142,8.375 -5.170000076293945,5.894999980926514 -5.21999979019165,-0.8949999809265137 C-5.21999979019165,-0.8949999809265137 9.079999923706055,-0.8949999809265137 9.079999923706055,-0.8949999809265137 C9.079999923706055,-0.8949999809265137 9.100000381469727,-0.9049999713897705 9.100000381469727,-0.9049999713897705 C9.149999618530273,-1.524999976158142 9.199999809265137,-2.0950000286102295 9.199999809265137,-2.6649999618530273 C9.199999809265137,-8.625 5.309999942779541,-11.164999961853027 1.0099999904632568,-11.164999961853027z M-5.119999885559082,-2.755000114440918 C-4.599999904632568,-7.414999961853027 -1.8600000143051147,-9.024999618530273 0.6299999952316284,-9.024999618530273 C3.430000066757202,-9.024999618530273 5.039999961853027,-7.054999828338623 5.139999866485596,-2.755000114440918 C5.139999866485596,-2.755000114440918 -5.119999885559082,-2.755000114440918 -5.119999885559082,-2.755000114440918z"></path></g><g opacity="1" transform="matrix(1,0,0,1,170.71499633789062,17.075000762939453)"><path fill="rgb(0,0,0)" fill-opacity="1" d=" M7.574999809265137,-10.494999885559082 C7.574999809265137,-10.494999885559082 7.574999809265137,-6.715000152587891 7.574999809265137,-6.715000152587891 C6.744999885559082,-6.875 5.965000152587891,-6.974999904632568 4.934999942779541,-6.974999904632568 C3.484999895095825,-6.974999904632568 1.3650000095367432,-6.715000152587891 -0.5049999952316284,-6.244999885559082 C-0.5049999952316284,-6.244999885559082 -0.5049999952316284,8.3149995803833 -0.5049999952316284,8.3149995803833 C-0.5049999952316284,8.3149995803833 -0.24500000476837158,8.574999809265137 -0.24500000476837158,8.574999809265137 C-0.24500000476837158,8.574999809265137 3.6449999809265137,8.574999809265137 3.6449999809265137,8.574999809265137 C3.6449999809265137,8.574999809265137 3.6449999809265137,10.904999732971191 3.6449999809265137,10.904999732971191 C3.6449999809265137,10.904999732971191 -7.494999885559082,10.904999732971191 -7.494999885559082,10.904999732971191 C-7.494999885559082,10.904999732971191 -7.494999885559082,8.574999809265137 -7.494999885559082,8.574999809265137 C-7.494999885559082,8.574999809265137 -4.385000228881836,8.574999809265137 -4.385000228881836,8.574999809265137 C-4.385000228881836,8.574999809265137 -4.125,8.3149995803833 -4.125,8.3149995803833 C-4.125,8.3149995803833 -4.125,-5.775000095367432 -4.125,-5.775000095367432 C-4.125,-5.775000095367432 -7.59499979019165,-7.434999942779541 -7.59499979019165,-7.434999942779541 C-7.59499979019165,-7.434999942779541 -7.59499979019165,-7.695000171661377 -7.59499979019165,-7.695000171661377 C-7.59499979019165,-7.695000171661377 -1.3250000476837158,-10.904999732971191 -1.3250000476837158,-10.904999732971191 C-1.3250000476837158,-10.904999732971191 -1.0149999856948853,-10.744999885559082 -1.0149999856948853,-10.744999885559082 C-1.0149999856948853,-10.744999885559082 -0.4950000047683716,-7.224999904632568 -0.4950000047683716,-7.224999904632568 C1.684999942779541,-8.835000038146973 4.585000038146973,-10.854999542236328 6.295000076293945,-10.854999542236328 C6.864999771118164,-10.854999542236328 7.224999904632568,-10.694999694824219 7.59499979019165,-10.494999885559082 C7.59499979019165,-10.494999885559082 7.574999809265137,-10.494999885559082 7.574999809265137,-10.494999885559082z"></path></g><g opacity="1" transform="matrix(1,0,0,1,187.77000427246094,24.8700008392334)"><path fill="rgb(0,0,0)" fill-opacity="1" d=" M-3.890000104904175,0 C-3.890000104904175,-2.119999885559082 -2.130000114440918,-3.890000104904175 0,-3.890000104904175 C2.130000114440918,-3.890000104904175 3.890000104904175,-2.130000114440918 3.890000104904175,0 C3.890000104904175,2.130000114440918 2.180000066757202,3.890000104904175 0,3.890000104904175 C-2.180000066757202,3.890000104904175 -3.890000104904175,2.130000114440918 -3.890000104904175,0z"></path></g><g opacity="1" transform="matrix(1,0,0,1,104.13500213623047,43.084999084472656)"><path fill="rgb(0,0,0)" fill-opacity="1" d=" M5.184999942779541,2.3450000286102295 C5.184999942779541,2.3450000286102295 5.184999942779541,2.984999895095825 5.184999942779541,2.984999895095825 C5.184999942779541,2.984999895095825 2.3450000286102295,2.984999895095825 2.3450000286102295,2.984999895095825 C2.3450000286102295,2.984999895095825 2.3450000286102295,2.3450000286102295 2.3450000286102295,2.3450000286102295 C2.3450000286102295,2.3450000286102295 3.194999933242798,2.3450000286102295 3.194999933242798,2.3450000286102295 C3.194999933242798,2.3450000286102295 3.265000104904175,2.2750000953674316 3.265000104904175,2.2750000953674316 C3.265000104904175,2.2750000953674316 3.265000104904175,-0.42500001192092896 3.265000104904175,-0.42500001192092896 C3.265000104904175,-1.6449999809265137 3.0250000953674316,-2.075000047683716 2.0250000953674316,-2.075000047683716 C1.5149999856948853,-2.075000047683716 1.0049999952316284,-1.9850000143051147 0.4749999940395355,-1.8650000095367432 C0.4749999940395355,-1.8650000095367432 0.4749999940395355,-1.8949999809265137 0.4749999940395355,-1.8949999809265137 C0.5049999952316284,-1.725000023841858 0.5149999856948853,-1.524999976158142 0.5149999856948853,-1.3250000476837158 C0.5149999856948853,-1.3250000476837158 0.5149999856948853,2.265000104904175 0.5149999856948853,2.265000104904175 C0.5149999856948853,2.265000104904175 0.5849999785423279,2.3350000381469727 0.5849999785423279,2.3350000381469727 C0.5849999785423279,2.3350000381469727 1.434999942779541,2.3350000381469727 1.434999942779541,2.3350000381469727 C1.434999942779541,2.3350000381469727 1.434999942779541,2.9749999046325684 1.434999942779541,2.9749999046325684 C1.434999942779541,2.9749999046325684 -1.4049999713897705,2.9749999046325684 -1.4049999713897705,2.9749999046325684 C-1.4049999713897705,2.9749999046325684 -1.4049999713897705,2.3350000381469727 -1.4049999713897705,2.3350000381469727 C-1.4049999713897705,2.3350000381469727 -0.5550000071525574,2.3350000381469727 -0.5550000071525574,2.3350000381469727 C-0.5550000071525574,2.3350000381469727 -0.48500001430511475,2.265000104904175 -0.48500001430511475,2.265000104904175 C-0.48500001430511475,2.265000104904175 -0.48500001430511475,-0.4350000023841858 -0.48500001430511475,-0.4350000023841858 C-0.48500001430511475,-1.6549999713897705 -0.7250000238418579,-2.0850000381469727 -1.725000023841858,-2.0850000381469727 C-2.2249999046325684,-2.0850000381469727 -2.7149999141693115,-1.9950000047683716 -3.234999895095825,-1.8849999904632568 C-3.234999895095825,-1.8849999904632568 -3.234999895095825,2.265000104904175 -3.234999895095825,2.265000104904175 C-3.234999895095825,2.265000104904175 -3.1649999618530273,2.3350000381469727 -3.1649999618530273,2.3350000381469727 C-3.1649999618530273,2.3350000381469727 -2.315000057220459,2.3350000381469727 -2.315000057220459,2.3350000381469727 C-2.315000057220459,2.3350000381469727 -2.315000057220459,2.9749999046325684 -2.315000057220459,2.9749999046325684 C-2.315000057220459,2.9749999046325684 -5.15500020980835,2.9749999046325684 -5.15500020980835,2.9749999046325684 C-5.15500020980835,2.9749999046325684 -5.15500020980835,2.3350000381469727 -5.15500020980835,2.3350000381469727 C-5.15500020980835,2.3350000381469727 -4.304999828338623,2.3350000381469727 -4.304999828338623,2.3350000381469727 C-4.304999828338623,2.3350000381469727 -4.235000133514404,2.265000104904175 -4.235000133514404,2.265000104904175 C-4.235000133514404,2.265000104904175 -4.235000133514404,-1.5850000381469727 -4.235000133514404,-1.5850000381469727 C-4.235000133514404,-1.5850000381469727 -5.184999942779541,-2.0350000858306885 -5.184999942779541,-2.0350000858306885 C-5.184999942779541,-2.0350000858306885 -5.184999942779541,-2.1050000190734863 -5.184999942779541,-2.1050000190734863 C-5.184999942779541,-2.1050000190734863 -3.4649999141693115,-2.984999895095825 -3.4649999141693115,-2.984999895095825 C-3.4649999141693115,-2.984999895095825 -3.384999990463257,-2.944999933242798 -3.384999990463257,-2.944999933242798 C-3.384999990463257,-2.944999933242798 -3.2750000953674316,-2.134999990463257 -3.2750000953674316,-2.134999990463257 C-2.4549999237060547,-2.674999952316284 -1.8350000381469727,-2.984999895095825 -1.284999966621399,-2.984999895095825 C-0.375,-2.984999895095825 0.14499999582767487,-2.674999952316284 0.375,-2.075000047683716 C1.225000023841858,-2.6449999809265137 1.8849999904632568,-2.984999895095825 2.444999933242798,-2.984999895095825 C3.684999942779541,-2.984999895095825 4.224999904632568,-2.384999990463257 4.224999904632568,-1.3250000476837158 C4.224999904632568,-1.3250000476837158 4.224999904632568,2.265000104904175 4.224999904632568,2.265000104904175 C4.224999904632568,2.265000104904175 4.295000076293945,2.3350000381469727 4.295000076293945,2.3350000381469727 C4.295000076293945,2.3350000381469727 5.144999980926514,2.3350000381469727 5.144999980926514,2.3350000381469727 C5.144999980926514,2.3350000381469727 5.184999942779541,2.3450000286102295 5.184999942779541,2.3450000286102295z"></path></g><g opacity="1" transform="matrix(1,0,0,1,113.54000091552734,43.154998779296875)"><path fill="rgb(0,0,0)" fill-opacity="1" d=" M1.690000057220459,2.2049999237060547 C1.690000057220459,2.2049999237060547 1.690000057220459,-1.1950000524520874 1.690000057220459,-1.1950000524520874 C1.690000057220459,-2.384999990463257 0.9399999976158142,-3.055000066757202 -0.20999999344348907,-3.055000066757202 C-1.1200000047683716,-3.055000066757202 -1.7799999713897705,-2.7049999237060547 -2.430000066757202,-2.0850000381469727 C-2.430000066757202,-2.0850000381469727 -2.25,-1.7450000047683716 -2.25,-1.7450000047683716 C-1.75,-2.075000047683716 -1.25,-2.2850000858306885 -0.6000000238418579,-2.2850000858306885 C0.4300000071525574,-2.2850000858306885 0.6899999976158142,-1.7450000047683716 0.6899999976158142,-0.625 C0.6899999976158142,-0.625 0.6899999976158142,-0.1850000023841858 0.6899999976158142,-0.1850000023841858 C-1.2300000190734863,-0.0949999988079071 -2.609999895095825,0.38499999046325684 -2.609999895095825,1.6950000524520874 C-2.609999895095825,2.505000114440918 -2.0299999713897705,3.055000066757202 -1.190000057220459,3.055000066757202 C-0.5600000023841858,3.055000066757202 0.019999999552965164,2.7850000858306885 0.6899999976158142,2.3350000381469727 C0.6899999976158142,2.3350000381469727 0.6899999976158142,2.9149999618530273 0.6899999976158142,2.9149999618530273 C0.6899999976158142,2.9149999618530273 2.609999895095825,2.9149999618530273 2.609999895095825,2.9149999618530273 C2.609999895095825,2.9149999618530273 2.609999895095825,2.2750000953674316 2.609999895095825,2.2750000953674316 C2.609999895095825,2.2750000953674316 1.7599999904632568,2.2750000953674316 1.7599999904632568,2.2750000953674316 C1.7599999904632568,2.2750000953674316 1.690000057220459,2.2049999237060547 1.690000057220459,2.2049999237060547z M0.6899999976158142,2.075000047683716 C0.6899999976158142,2.075000047683716 0.6800000071525574,2.0850000381469727 0.6800000071525574,2.0850000381469727 C0.28999999165534973,2.2249999046325684 -0.23999999463558197,2.325000047683716 -0.6800000071525574,2.325000047683716 C-1.2200000286102295,2.325000047683716 -1.600000023841858,2.065000057220459 -1.600000023841858,1.5149999856948853 C-1.600000023841858,0.5550000071525574 -0.5199999809265137,0.36500000953674316 0.6899999976158142,0.2750000059604645 C0.6899999976158142,0.2750000059604645 0.6899999976158142,2.075000047683716 0.6899999976158142,2.075000047683716z"></path></g><g opacity="1" transform="matrix(1,0,0,1,121.08999633789062,43.08000183105469)"><path fill="rgb(0,0,0)" fill-opacity="1" d=" M3.380000114440918,2.3499999046325684 C3.380000114440918,2.3499999046325684 3.380000114440918,2.990000009536743 3.380000114440918,2.990000009536743 C3.380000114440918,2.990000009536743 0.4699999988079071,2.990000009536743 0.4699999988079071,2.990000009536743 C0.4699999988079071,2.990000009536743 0.4699999988079071,2.3499999046325684 0.4699999988079071,2.3499999046325684 C0.4699999988079071,2.3499999046325684 1.3899999856948853,2.3499999046325684 1.3899999856948853,2.3499999046325684 C1.3899999856948853,2.3499999046325684 1.4600000381469727,2.2799999713897705 1.4600000381469727,2.2799999713897705 C1.4600000381469727,2.2799999713897705 1.4600000381469727,-0.41999998688697815 1.4600000381469727,-0.41999998688697815 C1.4600000381469727,-1.6399999856948853 1.2100000381469727,-2.069999933242798 0.15000000596046448,-2.069999933242798 C-0.3799999952316284,-2.069999933242798 -0.8899999856948853,-1.9800000190734863 -1.4299999475479126,-1.8700000047683716 C-1.4299999475479126,-1.8700000047683716 -1.4299999475479126,2.2799999713897705 -1.4299999475479126,2.2799999713897705 C-1.4299999475479126,2.2799999713897705 -1.3600000143051147,2.3499999046325684 -1.3600000143051147,2.3499999046325684 C-1.3600000143051147,2.3499999046325684 -0.4399999976158142,2.3499999046325684 -0.4399999976158142,2.3499999046325684 C-0.4399999976158142,2.3499999046325684 -0.4399999976158142,2.990000009536743 -0.4399999976158142,2.990000009536743 C-0.4399999976158142,2.990000009536743 -3.3499999046325684,2.990000009536743 -3.3499999046325684,2.990000009536743 C-3.3499999046325684,2.990000009536743 -3.3499999046325684,2.3499999046325684 -3.3499999046325684,2.3499999046325684 C-3.3499999046325684,2.3499999046325684 -2.5,2.3499999046325684 -2.5,2.3499999046325684 C-2.5,2.3499999046325684 -2.430000066757202,2.2799999713897705 -2.430000066757202,2.2799999713897705 C-2.430000066757202,2.2799999713897705 -2.430000066757202,-1.5800000429153442 -2.430000066757202,-1.5800000429153442 C-2.430000066757202,-1.5800000429153442 -3.380000114440918,-2.0399999618530273 -3.380000114440918,-2.0399999618530273 C-3.380000114440918,-2.0399999618530273 -3.380000114440918,-2.109999895095825 -3.380000114440918,-2.109999895095825 C-3.380000114440918,-2.109999895095825 -1.659999966621399,-2.990000009536743 -1.659999966621399,-2.990000009536743 C-1.659999966621399,-2.990000009536743 -1.5800000429153442,-2.950000047683716 -1.5800000429153442,-2.950000047683716 C-1.5800000429153442,-2.950000047683716 -1.4700000286102295,-2.140000104904175 -1.4700000286102295,-2.140000104904175 C-0.6299999952316284,-2.680000066757202 0.03999999910593033,-2.9800000190734863 0.5899999737739563,-2.9800000190734863 C1.8700000047683716,-2.9800000190734863 2.440000057220459,-2.380000114440918 2.440000057220459,-1.3200000524520874 C2.440000057220459,-1.3200000524520874 2.440000057220459,2.2699999809265137 2.440000057220459,2.2699999809265137 C2.440000057220459,2.2699999809265137 2.509999990463257,2.3399999141693115 2.509999990463257,2.3399999141693115 C2.509999990463257,2.3399999141693115 3.359999895095825,2.3399999141693115 3.359999895095825,2.3399999141693115 C3.359999895095825,2.3399999141693115 3.380000114440918,2.3499999046325684 3.380000114440918,2.3499999046325684z"></path></g><g opacity="1" transform="matrix(1,0,0,1,128.48500061035156,44.974998474121094)"><path fill="rgb(0,0,0)" fill-opacity="1" d=" M3.384999990463257,-4.644999980926514 C3.384999990463257,-4.644999980926514 3.384999990463257,-4.605000019073486 3.384999990463257,-4.605000019073486 C3.384999990463257,-4.605000019073486 2.615000009536743,-3.934999942779541 2.615000009536743,-3.934999942779541 C2.615000009536743,-3.934999942779541 0.32499998807907104,1.475000023841858 0.32499998807907104,1.475000023841858 C0.32499998807907104,1.475000023841858 -1.034999966621399,4.644999980926514 -1.034999966621399,4.644999980926514 C-1.034999966621399,4.644999980926514 -2.255000114440918,4.114999771118164 -2.255000114440918,4.114999771118164 C-2.255000114440918,4.114999771118164 -0.19499999284744263,1.6050000190734863 -0.19499999284744263,1.6050000190734863 C-0.19499999284744263,1.6050000190734863 -2.5850000381469727,-3.934999942779541 -2.5850000381469727,-3.934999942779541 C-2.5850000381469727,-3.934999942779541 -3.3949999809265137,-4.574999809265137 -3.3949999809265137,-4.574999809265137 C-3.3949999809265137,-4.574999809265137 -3.3949999809265137,-4.644999980926514 -3.3949999809265137,-4.644999980926514 C-3.3949999809265137,-4.644999980926514 -0.5350000262260437,-4.644999980926514 -0.5350000262260437,-4.644999980926514 C-0.5350000262260437,-4.644999980926514 -0.5350000262260437,-4.605000019073486 -0.5350000262260437,-4.605000019073486 C-0.5350000262260437,-4.605000019073486 -1.4550000429153442,-3.924999952316284 -1.4550000429153442,-3.924999952316284 C-1.4550000429153442,-3.924999952316284 0.29499998688697815,0.2849999964237213 0.29499998688697815,0.2849999964237213 C0.29499998688697815,0.2849999964237213 1.9450000524520874,-3.934999942779541 1.9450000524520874,-3.934999942779541 C1.9450000524520874,-3.934999942779541 0.9350000023841858,-4.574999809265137 0.9350000023841858,-4.574999809265137 C0.9350000023841858,-4.574999809265137 0.9350000023841858,-4.644999980926514 0.9350000023841858,-4.644999980926514 C0.9350000023841858,-4.644999980926514 3.3949999809265137,-4.644999980926514 3.3949999809265137,-4.644999980926514 C3.3949999809265137,-4.644999980926514 3.384999990463257,-4.644999980926514 3.384999990463257,-4.644999980926514z"></path></g><g opacity="1" transform="matrix(1,0,0,1,138.8699951171875,43.154998779296875)"><path fill="rgb(0,0,0)" fill-opacity="1" d=" M-1.899999976158142,2.7149999141693115 C-1.899999976158142,2.7149999141693115 -1.899999976158142,1.225000023841858 -1.899999976158142,1.225000023841858 C-1.899999976158142,1.225000023841858 -1.8300000429153442,1.225000023841858 -1.8300000429153442,1.225000023841858 C-1.8300000429153442,1.225000023841858 -1.1200000047683716,2.005000114440918 -1.1200000047683716,2.005000114440918 C-0.8100000023841858,2.315000057220459 -0.4099999964237213,2.515000104904175 0.019999999552965164,2.515000104904175 C0.6000000238418579,2.515000104904175 1,2.2149999141693115 1,1.7050000429153442 C1,0.9950000047683716 0.3199999928474426,0.7649999856948853 -0.41999998688697815,0.36500000953674316 C-1.2899999618530273,-0.10499999672174454 -1.809999942779541,-0.6050000190734863 -1.809999942779541,-1.4249999523162842 C-1.809999942779541,-2.375 -1.0399999618530273,-3.055000066757202 0.20999999344348907,-3.055000066757202 C0.7599999904632568,-3.055000066757202 1.2799999713897705,-2.9549999237060547 1.7200000286102295,-2.7850000858306885 C1.7200000286102295,-2.7850000858306885 1.7200000286102295,-1.3350000381469727 1.7200000286102295,-1.3350000381469727 C1.7200000286102295,-1.3350000381469727 1.649999976158142,-1.3350000381469727 1.649999976158142,-1.3350000381469727 C1.649999976158142,-1.3350000381469727 0.9100000262260437,-2.1549999713897705 0.9100000262260437,-2.1549999713897705 C0.6800000071525574,-2.365000009536743 0.3700000047683716,-2.5250000953674316 -0.029999999329447746,-2.5250000953674316 C-0.6000000238418579,-2.5250000953674316 -0.949999988079071,-2.194999933242798 -0.949999988079071,-1.7350000143051147 C-0.949999988079071,-1.065000057220459 -0.2800000011920929,-0.7549999952316284 0.38999998569488525,-0.39500001072883606 C1.1100000143051147,0.004999999888241291 1.899999976158142,0.41499999165534973 1.899999976158142,1.3949999809265137 C1.899999976158142,2.375 1.0199999809265137,3.055000066757202 -0.05999999865889549,3.055000066757202 C-0.7699999809265137,3.055000066757202 -1.340000033378601,2.9149999618530273 -1.8799999952316284,2.7149999141693115 C-1.8799999952316284,2.7149999141693115 -1.899999976158142,2.7149999141693115 -1.899999976158142,2.7149999141693115z"></path></g><g opacity="1" transform="matrix(1,0,0,1,144.22999572753906,42.345001220703125)"><path fill="rgb(0,0,0)" fill-opacity="1" d=" M-1.1100000143051147,2.065000057220459 C-1.1100000143051147,2.065000057220459 -1.1100000143051147,-1.3049999475479126 -1.1100000143051147,-1.3049999475479126 C-1.1100000143051147,-1.3049999475479126 -1.1799999475479126,-1.375 -1.1799999475479126,-1.375 C-1.1799999475479126,-1.375 -2.0299999713897705,-1.375 -2.0299999713897705,-1.375 C-2.0299999713897705,-1.375 -2.0299999713897705,-1.4450000524520874 -2.0299999713897705,-1.4450000524520874 C-2.0299999713897705,-1.4450000524520874 -0.18000000715255737,-3.875 -0.18000000715255737,-3.875 C-0.18000000715255737,-3.875 -0.10999999940395355,-3.875 -0.10999999940395355,-3.875 C-0.10999999940395355,-3.875 -0.10999999940395355,-2.015000104904175 -0.10999999940395355,-2.015000104904175 C-0.10999999940395355,-2.015000104904175 1.809999942779541,-2.015000104904175 1.809999942779541,-2.015000104904175 C1.809999942779541,-2.015000104904175 1.809999942779541,-1.375 1.809999942779541,-1.375 C1.809999942779541,-1.375 -0.10999999940395355,-1.375 -0.10999999940395355,-1.375 C-0.10999999940395355,-1.375 -0.10999999940395355,1.284999966621399 -0.10999999940395355,1.284999966621399 C-0.10999999940395355,2.7149999141693115 0.10000000149011612,3.2049999237060547 0.9300000071525574,3.2049999237060547 C1.2799999713897705,3.2049999237060547 1.5800000429153442,3.1449999809265137 1.8700000047683716,3.0450000762939453 C1.8700000047683716,3.0450000762939453 2.0299999713897705,3.3450000286102295 2.0299999713897705,3.3450000286102295 C1.6299999952316284,3.615000009536743 1.0199999809265137,3.875 0.4000000059604645,3.875 C-0.6100000143051147,3.875 -1.090000033378601,3.424999952316284 -1.090000033378601,2.075000047683716 C-1.090000033378601,2.075000047683716 -1.1100000143051147,2.065000057220459 -1.1100000143051147,2.065000057220459z"></path></g><g opacity="1" transform="matrix(1,0,0,1,150.5850067138672,43.154998779296875)"><path fill="rgb(0,0,0)" fill-opacity="1" d=" M0.08500000089406967,-3.055000066757202 C-1.8049999475479126,-3.055000066757202 -2.9149999618530273,-1.5750000476837158 -2.9149999618530273,0.11500000208616257 C-2.9149999618530273,1.9450000524520874 -1.7050000429153442,3.055000066757202 -0.054999999701976776,3.055000066757202 C1.7949999570846558,3.055000066757202 2.9149999618530273,1.565000057220459 2.9149999618530273,-0.11500000208616257 C2.9149999618530273,-1.965000033378601 1.6950000524520874,-3.055000066757202 0.08500000089406967,-3.055000066757202z M1.8049999475479126,0.24500000476837158 C1.8049999475479126,0.24300000071525574 1.8049999475479126,0.24199999868869781 1.8049999475479126,0.23999999463558197 C1.8029999732971191,1.7660000324249268 1.1039999723434448,2.484999895095825 0.125,2.484999895095825 C-1.024999976158142,2.484999895095825 -1.8250000476837158,1.274999976158142 -1.8250000476837158,-0.2549999952316284 C-1.8250000476837158,-1.784999966621399 -1.0850000381469727,-2.484999895095825 -0.14499999582767487,-2.484999895095825 C0.9639999866485596,-2.484999895095825 1.8029999732971191,-1.3170000314712524 1.8049999475479126,0.23999999463558197 C1.8049999475479126,0.23800000548362732 1.8049999475479126,0.2370000034570694 1.8049999475479126,0.23499999940395355 C1.8049999475479126,0.23499999940395355 1.8049999475479126,0.24500000476837158 1.8049999475479126,0.24500000476837158z"></path></g><g opacity="1" transform="matrix(1,0,0,1,157.3300018310547,43.08000183105469)"><path fill="rgb(0,0,0)" fill-opacity="1" d=" M2.069999933242798,-2.880000114440918 C2.069999933242798,-2.880000114440918 2.069999933242798,-1.840000033378601 2.069999933242798,-1.840000033378601 C1.840000033378601,-1.8799999952316284 1.6299999952316284,-1.909999966621399 1.350000023841858,-1.909999966621399 C0.949999988079071,-1.909999966621399 0.3700000047683716,-1.840000033378601 -0.14000000059604645,-1.7100000381469727 C-0.14000000059604645,-1.7100000381469727 -0.14000000059604645,2.2799999713897705 -0.14000000059604645,2.2799999713897705 C-0.14000000059604645,2.2799999713897705 -0.07000000029802322,2.3499999046325684 -0.07000000029802322,2.3499999046325684 C-0.07000000029802322,2.3499999046325684 1,2.3499999046325684 1,2.3499999046325684 C1,2.3499999046325684 1,2.990000009536743 1,2.990000009536743 C1,2.990000009536743 -2.049999952316284,2.990000009536743 -2.049999952316284,2.990000009536743 C-2.049999952316284,2.990000009536743 -2.049999952316284,2.3499999046325684 -2.049999952316284,2.3499999046325684 C-2.049999952316284,2.3499999046325684 -1.2000000476837158,2.3499999046325684 -1.2000000476837158,2.3499999046325684 C-1.2000000476837158,2.3499999046325684 -1.1299999952316284,2.2799999713897705 -1.1299999952316284,2.2799999713897705 C-1.1299999952316284,2.2799999713897705 -1.1299999952316284,-1.5800000429153442 -1.1299999952316284,-1.5800000429153442 C-1.1299999952316284,-1.5800000429153442 -2.0799999237060547,-2.0399999618530273 -2.0799999237060547,-2.0399999618530273 C-2.0799999237060547,-2.0399999618530273 -2.0799999237060547,-2.109999895095825 -2.0799999237060547,-2.109999895095825 C-2.0799999237060547,-2.109999895095825 -0.36000001430511475,-2.990000009536743 -0.36000001430511475,-2.990000009536743 C-0.36000001430511475,-2.990000009536743 -0.2800000011920929,-2.950000047683716 -0.2800000011920929,-2.950000047683716 C-0.2800000011920929,-2.950000047683716 -0.14000000059604645,-1.9800000190734863 -0.14000000059604645,-1.9800000190734863 C0.46000000834465027,-2.4200000762939453 1.25,-2.9800000190734863 1.7200000286102295,-2.9800000190734863 C1.8799999952316284,-2.9800000190734863 1.9800000190734863,-2.940000057220459 2.0799999237060547,-2.880000114440918 C2.0799999237060547,-2.880000114440918 2.069999933242798,-2.880000114440918 2.069999933242798,-2.880000114440918z"></path></g><g opacity="1" transform="matrix(1,0,0,1,162.0399932861328,43.08000183105469)"><path fill="rgb(0,0,0)" fill-opacity="1" d=" M-1.399999976158142,2.3499999046325684 C-1.399999976158142,2.3499999046325684 -0.550000011920929,2.3499999046325684 -0.550000011920929,2.3499999046325684 C-0.550000011920929,2.3499999046325684 -0.47999998927116394,2.2799999713897705 -0.47999998927116394,2.2799999713897705 C-0.47999998927116394,2.2799999713897705 -0.47999998927116394,-1.5800000429153442 -0.47999998927116394,-1.5800000429153442 C-0.47999998927116394,-1.5800000429153442 -1.4299999475479126,-2.0399999618530273 -1.4299999475479126,-2.0399999618530273 C-1.4299999475479126,-2.0399999618530273 -1.4299999475479126,-2.109999895095825 -1.4299999475479126,-2.109999895095825 C-1.4299999475479126,-2.109999895095825 0.4300000071525574,-2.9800000190734863 0.4300000071525574,-2.9800000190734863 C0.4300000071525574,-2.9800000190734863 0.5099999904632568,-2.940000057220459 0.5099999904632568,-2.940000057220459 C0.5099999904632568,-2.940000057220459 0.5099999904632568,2.2699999809265137 0.5099999904632568,2.2699999809265137 C0.5099999904632568,2.2699999809265137 0.5799999833106995,2.3399999141693115 0.5799999833106995,2.3399999141693115 C0.5799999833106995,2.3399999141693115 1.4299999475479126,2.3399999141693115 1.4299999475479126,2.3399999141693115 C1.4299999475479126,2.3399999141693115 1.4299999475479126,2.9800000190734863 1.4299999475479126,2.9800000190734863 C1.4299999475479126,2.9800000190734863 -1.409999966621399,2.9800000190734863 -1.409999966621399,2.9800000190734863 C-1.409999966621399,2.9800000190734863 -1.409999966621399,2.3399999141693115 -1.409999966621399,2.3399999141693115 C-1.409999966621399,2.3399999141693115 -1.399999976158142,2.3499999046325684 -1.399999976158142,2.3499999046325684z"></path></g><g opacity="1" transform="matrix(1,0,0,1,161.9550018310547,37.85499954223633)"><path fill="rgb(0,0,0)" fill-opacity="1" d=" M-0.7749999761581421,0.004999999888241291 C-0.7749999761581421,-0.42500001192092896 -0.41499999165534973,-0.7749999761581421 0.004999999888241291,-0.7749999761581421 C0.42500001192092896,-0.7749999761581421 0.7749999761581421,-0.42500001192092896 0.7749999761581421,0.004999999888241291 C0.7749999761581421,0.4350000023841858 0.41499999165534973,0.7749999761581421 0.004999999888241291,0.7749999761581421 C-0.4050000011920929,0.7749999761581421 -0.7749999761581421,0.42500001192092896 -0.7749999761581421,0.004999999888241291z"></path></g><g opacity="1" transform="matrix(1,0,0,1,167.6999969482422,43.1349983215332)"><path fill="rgb(0,0,0)" fill-opacity="1" d=" M0.2800000011920929,-3.065000057220459 C-1.0099999904632568,-3.065000057220459 -2.5199999809265137,-1.9550000429153442 -2.5199999809265137,0.13500000536441803 C-2.5199999809265137,1.7549999952316284 -1.4800000190734863,3.065000057220459 0.25,3.065000057220459 C1.0700000524520874,3.065000057220459 1.909999966621399,2.755000114440918 2.450000047683716,2.244999885559082 C2.450000047683716,2.244999885559082 2.2899999618530273,1.9450000524520874 2.2899999618530273,1.9450000524520874 C1.899999976158142,2.1649999618530273 1.3700000047683716,2.305000066757202 0.8299999833106995,2.305000066757202 C-0.44999998807907104,2.305000066757202 -1.4199999570846558,1.625 -1.4299999475479126,-0.23499999940395355 C-1.4299999475479126,-0.23499999940395355 2.490000009536743,-0.23499999940395355 2.490000009536743,-0.23499999940395355 C2.490000009536743,-0.23499999940395355 2.490000009536743,-0.2549999952316284 2.490000009536743,-0.2549999952316284 C2.509999990463257,-0.42500001192092896 2.5199999809265137,-0.574999988079071 2.5199999809265137,-0.7350000143051147 C2.5199999809265137,-2.365000009536743 1.4600000381469727,-3.065000057220459 0.2800000011920929,-3.065000057220459z M-1.399999976158142,-0.7450000047683716 C-1.399999976158142,-0.7450000047683716 -1.409999966621399,-0.7450000047683716 -1.409999966621399,-0.7450000047683716 C-1.2599999904632568,-2.0250000953674316 -0.5099999904632568,-2.4649999141693115 0.17000000178813934,-2.4649999141693115 C0.9399999976158142,-2.4649999141693115 1.3799999952316284,-1.9249999523162842 1.409999966621399,-0.7450000047683716 C1.409999966621399,-0.7450000047683716 -1.399999976158142,-0.7450000047683716 -1.399999976158142,-0.7450000047683716z"></path></g><g opacity="1" transform="matrix(1,0,0,1,173.9499969482422,43.154998779296875)"><path fill="rgb(0,0,0)" fill-opacity="1" d=" M-1.899999976158142,2.7149999141693115 C-1.899999976158142,2.7149999141693115 -1.899999976158142,1.225000023841858 -1.899999976158142,1.225000023841858 C-1.899999976158142,1.225000023841858 -1.8300000429153442,1.225000023841858 -1.8300000429153442,1.225000023841858 C-1.8300000429153442,1.225000023841858 -1.1200000047683716,2.005000114440918 -1.1200000047683716,2.005000114440918 C-0.8100000023841858,2.315000057220459 -0.4099999964237213,2.515000104904175 0.019999999552965164,2.515000104904175 C0.6000000238418579,2.515000104904175 1,2.2149999141693115 1,1.7050000429153442 C1,0.9950000047683716 0.3199999928474426,0.7649999856948853 -0.41999998688697815,0.36500000953674316 C-1.2899999618530273,-0.10499999672174454 -1.809999942779541,-0.6050000190734863 -1.809999942779541,-1.4249999523162842 C-1.809999942779541,-2.375 -1.0399999618530273,-3.055000066757202 0.20999999344348907,-3.055000066757202 C0.7599999904632568,-3.055000066757202 1.2799999713897705,-2.9549999237060547 1.7200000286102295,-2.7850000858306885 C1.7200000286102295,-2.7850000858306885 1.7200000286102295,-1.3350000381469727 1.7200000286102295,-1.3350000381469727 C1.7200000286102295,-1.3350000381469727 1.649999976158142,-1.3350000381469727 1.649999976158142,-1.3350000381469727 C1.649999976158142,-1.3350000381469727 0.9100000262260437,-2.1549999713897705 0.9100000262260437,-2.1549999713897705 C0.6800000071525574,-2.365000009536743 0.3700000047683716,-2.5250000953674316 -0.029999999329447746,-2.5250000953674316 C-0.6000000238418579,-2.5250000953674316 -0.949999988079071,-2.194999933242798 -0.949999988079071,-1.7350000143051147 C-0.949999988079071,-1.065000057220459 -0.2800000011920929,-0.7549999952316284 0.38999998569488525,-0.39500001072883606 C1.1100000143051147,0.004999999888241291 1.899999976158142,0.41499999165534973 1.899999976158142,1.3949999809265137 C1.899999976158142,2.375 1.0199999809265137,3.055000066757202 -0.05999999865889549,3.055000066757202 C-0.7699999809265137,3.055000066757202 -1.340000033378601,2.9149999618530273 -1.8799999952316284,2.7149999141693115 C-1.8799999952316284,2.7149999141693115 -1.899999976158142,2.7149999141693115 -1.899999976158142,2.7149999141693115z"></path></g></g><g style="display: block;" transform="matrix(1,0,0,1,842.5999755859375,497.1600341796875)" opacity="1"><g opacity="1" transform="matrix(1,0,0,1,15.489999771118164,19.690000534057617)"><path fill="rgb(0,0,0)" fill-opacity="1" d=" M0,-11.65999984741211 C-6.440000057220459,-11.65999984741211 -11.65999984741211,-6.440000057220459 -11.65999984741211,0 C-11.65999984741211,6.440000057220459 -6.440000057220459,11.65999984741211 0,11.65999984741211 C6.440000057220459,11.65999984741211 11.65999984741211,6.440000057220459 11.65999984741211,0 C11.65999984741211,-6.440000057220459 6.440000057220459,-11.65999984741211 0,-11.65999984741211z"></path></g><g opacity="1" transform="matrix(1,0,0,1,15.489999771118164,19.690000534057617)"><path fill="rgb(255,255,255)" fill-opacity="1" d=" M0,4.579999923706055 C-4.659999847412109,4.579999923706055 -8.449999809265137,1.690000057220459 -8.449999809265137,0 C-8.449999809265137,-1.690000057220459 -4.670000076293945,-4.579999923706055 0,-4.579999923706055 C4.670000076293945,-4.579999923706055 8.449999809265137,-1.690000057220459 8.449999809265137,0 C8.449999809265137,1.690000057220459 4.670000076293945,4.579999923706055 0,4.579999923706055z"></path></g><g opacity="0" transform="matrix(1,0,0,1,15.510000228881836,19.739999771118164)"><path fill="rgb(0,0,0)" fill-opacity="1" d=" M1.8200000524520874,0 C1.8200000524520874,1.0099999904632568 1,1.8200000524520874 0,1.8200000524520874 C-1,1.8200000524520874 -1.8200000524520874,1 -1.8200000524520874,0 C-1.8200000524520874,-1 -1,-1.8200000524520874 0,-1.8200000524520874 C1,-1.8200000524520874 1.8200000524520874,-1 1.8200000524520874,0z"></path></g><g opacity="0" transform="matrix(1,0,0,0,15.644999504089355,34.35200119018555)"><path fill="rgb(0,0,0)" fill-opacity="1" d=" M1.034999966621399,2.4049999713897705 C1.034999966621399,2.4049999713897705 -1.034999966621399,2.4049999713897705 -1.034999966621399,2.4049999713897705 C-1.034999966621399,2.4049999713897705 -1.034999966621399,-2.4049999713897705 -1.034999966621399,-2.4049999713897705 C-1.034999966621399,-2.4049999713897705 1.034999966621399,-2.4049999713897705 1.034999966621399,-2.4049999713897705 C1.034999966621399,-2.4049999713897705 1.034999966621399,2.4049999713897705 1.034999966621399,2.4049999713897705z"></path></g><g opacity="0" transform="matrix(0.7071067690849304,-0.7071067690849304,0,0,26.599016189575195,30.240983963012695)"><path fill="rgb(0,0,0)" fill-opacity="1" d=" M1.034999966621399,2.4049999713897705 C1.034999966621399,2.4049999713897705 -1.034999966621399,2.4049999713897705 -1.034999966621399,2.4049999713897705 C-1.034999966621399,2.4049999713897705 -1.034999966621399,-2.4049999713897705 -1.034999966621399,-2.4049999713897705 C-1.034999966621399,-2.4049999713897705 1.034999966621399,-2.4049999713897705 1.034999966621399,-2.4049999713897705 C1.034999966621399,-2.4049999713897705 1.034999966621399,2.4049999713897705 1.034999966621399,2.4049999713897705z"></path></g><g opacity="0" transform="matrix(0.7071067690849304,0.7071067690849304,0,0,4.611015796661377,29.811016082763672)"><path fill="rgb(0,0,0)" fill-opacity="1" d=" M1.034999966621399,2.4049999713897705 C1.034999966621399,2.4049999713897705 -1.034999966621399,2.4049999713897705 -1.034999966621399,2.4049999713897705 C-1.034999966621399,2.4049999713897705 -1.034999966621399,-2.4049999713897705 -1.034999966621399,-2.4049999713897705 C-1.034999966621399,-2.4049999713897705 1.034999966621399,-2.4049999713897705 1.034999966621399,-2.4049999713897705 C1.034999966621399,-2.4049999713897705 1.034999966621399,2.4049999713897705 1.034999966621399,2.4049999713897705z"></path></g><g opacity="1" transform="matrix(1,0,0,0,15.645000457763672,4.745999813079834)"><path fill="rgb(0,0,0)" fill-opacity="1" d=" M1.034999966621399,2.4049999713897705 C1.034999966621399,2.4049999713897705 -1.034999966621399,2.4049999713897705 -1.034999966621399,2.4049999713897705 C-1.034999966621399,2.4049999713897705 -1.034999966621399,-2.4049999713897705 -1.034999966621399,-2.4049999713897705 C-1.034999966621399,-2.4049999713897705 1.034999966621399,-2.4049999713897705 1.034999966621399,-2.4049999713897705 C1.034999966621399,-2.4049999713897705 1.034999966621399,2.4049999713897705 1.034999966621399,2.4049999713897705z"></path></g><g opacity="0" transform="matrix(0.7071067690849304,0.7071067690849304,0,0,26.74555206298828,9.045553207397461)"><path fill="rgb(0,0,0)" fill-opacity="1" d=" M1.034999966621399,2.4049999713897705 C1.034999966621399,2.4049999713897705 -1.034999966621399,2.4049999713897705 -1.034999966621399,2.4049999713897705 C-1.034999966621399,2.4049999713897705 -1.034999966621399,-2.4049999713897705 -1.034999966621399,-2.4049999713897705 C-1.034999966621399,-2.4049999713897705 1.034999966621399,-2.4049999713897705 1.034999966621399,-2.4049999713897705 C1.034999966621399,-2.4049999713897705 1.034999966621399,2.4049999713897705 1.034999966621399,2.4049999713897705z"></path></g><g opacity="0" transform="matrix(0.6973840594291687,-0.6973840594291687,0,0,3.9016687870025635,9.098331451416016)"><path fill="rgb(0,0,0)" fill-opacity="1" d=" M1.034999966621399,2.4049999713897705 C1.034999966621399,2.4049999713897705 -1.034999966621399,2.4049999713897705 -1.034999966621399,2.4049999713897705 C-1.034999966621399,2.4049999713897705 -1.034999966621399,-2.4049999713897705 -1.034999966621399,-2.4049999713897705 C-1.034999966621399,-2.4049999713897705 1.034999966621399,-2.4049999713897705 1.034999966621399,-2.4049999713897705 C1.034999966621399,-2.4049999713897705 1.034999966621399,2.4049999713897705 1.034999966621399,2.4049999713897705z"></path></g></g></g></g>
</svg>